<svg width="16" height="16" viewBox="0 0 16 16" fill="none" xmlns="http://www.w3.org/2000/svg">
<path d="M7.99577 1.33325C6.67723 1.33325 5.3883 1.72425 4.29197 2.45679C3.19564 3.18933 2.34116 4.23052 1.83657 5.4487C1.33199 6.66687 1.19997 8.00731 1.4572 9.30052C1.71444 10.5937 2.34938 11.7816 3.28173 12.714C4.21408 13.6463 5.40196 14.2813 6.69517 14.5385C7.98838 14.7957 9.32882 14.6637 10.547 14.1591C11.7652 13.6545 12.8064 12.8 13.5389 11.7037C14.2714 10.6074 14.6624 9.31846 14.6624 7.99992C14.6625 7.12442 14.4901 6.25748 14.1551 5.44861C13.8201 4.63974 13.3291 3.90478 12.71 3.28571C12.0909 2.66664 11.356 2.17558 10.5471 1.84057C9.73821 1.50557 8.87127 1.33318 7.99577 1.33325ZM10.1154 11.4349C10.0905 11.4971 10.0525 11.5533 10.0041 11.5996C9.95566 11.646 9.89787 11.6814 9.83461 11.7036C9.77136 11.7258 9.70408 11.7342 9.63731 11.7283C9.57053 11.7224 9.5058 11.7022 9.44744 11.6692L7.63766 10.263L6.47612 11.3346C6.44917 11.3545 6.41764 11.3673 6.38444 11.3719C6.35123 11.3764 6.31742 11.3725 6.28612 11.3605L6.50878 9.36824L6.51591 9.37389L6.52046 9.33456C6.52046 9.33456 9.77713 6.36955 9.9098 6.24323C10.0441 6.11723 9.9998 6.08989 9.9998 6.08989C10.0074 5.93621 9.75879 6.08989 9.75879 6.08989L5.44377 8.86592L3.64678 8.25392C3.64678 8.25392 3.37078 8.15492 3.34478 7.93725C3.31744 7.72125 3.65577 7.60392 3.65577 7.60392L10.8004 4.76558C10.8004 4.76558 11.3878 4.5039 11.3878 4.93725L10.1154 11.4349Z" fill="#878EA8"/>
</svg>
