<svg width="16" height="16" viewBox="0 0 16 16" fill="none" xmlns="http://www.w3.org/2000/svg">
<path d="M11.5597 3.63992C11.4015 3.63992 11.2468 3.68684 11.1152 3.77474C10.9837 3.86265 10.8811 3.98759 10.8206 4.13377C10.76 4.27995 10.7442 4.44081 10.775 4.59599C10.8059 4.75118 10.8821 4.89372 10.994 5.0056C11.1059 5.11749 11.2484 5.19368 11.4036 5.22455C11.5588 5.25541 11.7196 5.23957 11.8658 5.17902C12.012 5.11847 12.1369 5.01593 12.2248 4.88438C12.3128 4.75282 12.3597 4.59814 12.3597 4.43992C12.3597 4.22775 12.2754 4.02426 12.1254 3.87423C11.9753 3.7242 11.7718 3.63992 11.5597 3.63992ZM14.6263 5.25325C14.6134 4.70012 14.5098 4.15285 14.3197 3.63325C14.1502 3.18867 13.8863 2.7861 13.5463 2.45325C13.2162 2.11154 12.8127 1.84937 12.3663 1.68659C11.8481 1.49069 11.3002 1.38473 10.7463 1.37325C10.0397 1.33325 9.81301 1.33325 7.99967 1.33325C6.18634 1.33325 5.95967 1.33325 5.25301 1.37325C4.69911 1.38473 4.15124 1.49069 3.63301 1.68659C3.18746 1.85102 2.7843 2.11296 2.45301 2.45325C2.11129 2.78337 1.84913 3.18688 1.68634 3.63325C1.49045 4.15148 1.38448 4.69935 1.37301 5.25325C1.33301 5.95992 1.33301 6.18659 1.33301 7.99992C1.33301 9.81325 1.33301 10.0399 1.37301 10.7466C1.38448 11.3005 1.49045 11.8484 1.68634 12.3666C1.84913 12.813 2.11129 13.2165 2.45301 13.5466C2.7843 13.8869 3.18746 14.1488 3.63301 14.3133C4.15124 14.5091 4.69911 14.6151 5.25301 14.6266C5.95967 14.6666 6.18634 14.6666 7.99967 14.6666C9.81301 14.6666 10.0397 14.6666 10.7463 14.6266C11.3002 14.6151 11.8481 14.5091 12.3663 14.3133C12.8127 14.1505 13.2162 13.8883 13.5463 13.5466C13.8878 13.215 14.1519 12.812 14.3197 12.3666C14.5098 11.847 14.6134 11.2997 14.6263 10.7466C14.6263 10.0399 14.6663 9.81325 14.6663 7.99992C14.6663 6.18659 14.6663 5.95992 14.6263 5.25325ZM13.4263 10.6666C13.4215 11.0898 13.3448 11.5091 13.1997 11.9066C13.0932 12.1967 12.9223 12.4589 12.6997 12.6733C12.4834 12.8936 12.2218 13.0642 11.933 13.1733C11.5355 13.3184 11.1162 13.3951 10.693 13.3999C10.0263 13.4333 9.77967 13.4399 8.02634 13.4399C6.27301 13.4399 6.02634 13.4399 5.35967 13.3999C4.92027 13.4081 4.48274 13.3405 4.06634 13.1999C3.7902 13.0853 3.54058 12.9151 3.33301 12.6999C3.11173 12.4858 2.9429 12.2234 2.83967 11.9333C2.67691 11.53 2.58664 11.1012 2.57301 10.6666C2.57301 9.99992 2.53301 9.75325 2.53301 7.99992C2.53301 6.24659 2.53301 5.99992 2.57301 5.33325C2.576 4.90062 2.65497 4.47188 2.80634 4.06659C2.92371 3.78519 3.10385 3.53436 3.33301 3.33325C3.53555 3.10403 3.78587 2.92198 4.06634 2.79992C4.47271 2.65328 4.90101 2.57664 5.33301 2.57325C5.99967 2.57325 6.24634 2.53325 7.99967 2.53325C9.75301 2.53325 9.99967 2.53325 10.6663 2.57325C11.0895 2.57811 11.5088 2.65475 11.9063 2.79992C12.2093 2.91235 12.4812 3.09515 12.6997 3.33325C12.9181 3.53804 13.0888 3.78841 13.1997 4.06659C13.3478 4.47254 13.4245 4.90111 13.4263 5.33325C13.4597 5.99992 13.4663 6.24659 13.4663 7.99992C13.4663 9.75325 13.4597 9.99992 13.4263 10.6666ZM7.99967 4.57992C7.32355 4.58124 6.66298 4.78294 6.10144 5.15953C5.53991 5.53613 5.10259 6.07072 4.84476 6.69575C4.58693 7.32079 4.52016 8.00823 4.65287 8.67121C4.78558 9.33418 5.11183 9.94294 5.59039 10.4206C6.06895 10.8982 6.67835 11.2233 7.34158 11.3547C8.00481 11.4861 8.69212 11.418 9.31665 11.1589C9.94119 10.8999 10.4749 10.4615 10.8504 9.89927C11.2259 9.337 11.4263 8.67605 11.4263 7.99992C11.4272 7.54999 11.3391 7.10432 11.1672 6.68856C10.9952 6.27279 10.7427 5.89513 10.4243 5.57729C10.1058 5.25945 9.72764 5.0077 9.31154 4.83654C8.89544 4.66537 8.4496 4.57816 7.99967 4.57992ZM7.99967 10.2199C7.5606 10.2199 7.13139 10.0897 6.76631 9.84578C6.40123 9.60184 6.11669 9.25513 5.94866 8.84948C5.78064 8.44382 5.73667 7.99746 5.82233 7.56682C5.90799 7.13618 6.11942 6.74061 6.4299 6.43014C6.74037 6.11967 7.13594 5.90823 7.56657 5.82258C7.99721 5.73692 8.44358 5.78088 8.84923 5.94891C9.25488 6.11693 9.6016 6.40148 9.84554 6.76655C10.0895 7.13163 10.2197 7.56084 10.2197 7.99992C10.2197 8.29145 10.1623 8.58013 10.0507 8.84948C9.93912 9.11882 9.7756 9.36355 9.56945 9.5697C9.36331 9.77584 9.11857 9.93937 8.84923 10.0509C8.57989 10.1625 8.29121 10.2199 7.99967 10.2199Z" fill="#878EA8"/>
</svg>
